<svg width="59" height="59" viewBox="0 0 59 59" fill="none" xmlns="http://www.w3.org/2000/svg">
<g id="AirplaneTilt" clip-path="url(#clip0_4_168)">
<path id="Vector" d="M20.2812 51.6251L25.8125 46.0938V40.5626L31.3438 35.0313L42.4062 51.6251L47.9375 46.0938L40.5625 25.8126L48.168 18.668C49.2071 17.6289 49.7908 16.2196 49.7908 14.7501C49.7908 13.2805 49.2071 11.8712 48.168 10.8321C47.1289 9.79299 45.7195 9.20923 44.25 9.20923C42.7805 9.20923 41.3711 9.79299 40.332 10.8321L33.1875 18.4376L12.9062 11.0626L7.375 16.5938L23.9688 27.6563L18.4375 33.1876H12.9062L7.375 38.7188L16.5938 42.4063L20.2812 51.6251Z" stroke="black" stroke-width="3" stroke-linecap="round" stroke-linejoin="round"/>
</g>
<defs>
<clipPath id="clip0_4_168">
<rect width="59" height="59" fill="white"/>
</clipPath>
</defs>
</svg>
