<svg width="71" height="71" viewBox="0 0 71 71" fill="none" xmlns="http://www.w3.org/2000/svg">
<g id="ClockCountdown" clip-path="url(#clip0_15_423)">
<path id="Vector" d="M61.7501 38.0875C60.6372 51.5625 49.2622 62.15 35.5001 62.15C28.5382 62.15 21.8614 59.3844 16.9386 54.4616C12.0157 49.5387 9.25012 42.862 9.25012 35.9C9.25012 22.1379 19.8376 10.7629 33.3126 9.65002" stroke="white" stroke-width="3" stroke-linecap="round" stroke-linejoin="round"/>
<path id="Vector_2" d="M35.5001 20.5875V35.9H50.8126" stroke="white" stroke-width="2" stroke-linecap="round" stroke-linejoin="round"/>
<path id="Vector_3" d="M44.2501 14.025C46.0623 14.025 47.5314 12.556 47.5314 10.7438C47.5314 8.93159 46.0623 7.46252 44.2501 7.46252C42.4379 7.46252 40.9689 8.93159 40.9689 10.7438C40.9689 12.556 42.4379 14.025 44.2501 14.025Z" fill="white"/>
<path id="Vector_4" d="M54.0939 20.5875C55.9061 20.5875 57.3751 19.1185 57.3751 17.3063C57.3751 15.4941 55.9061 14.025 54.0939 14.025C52.2817 14.025 50.8126 15.4941 50.8126 17.3063C50.8126 19.1185 52.2817 20.5875 54.0939 20.5875Z" fill="white"/>
<path id="Vector_5" d="M60.6564 30.4313C62.4686 30.4313 63.9376 28.9622 63.9376 27.15C63.9376 25.3378 62.4686 23.8688 60.6564 23.8688C58.8442 23.8688 57.3751 25.3378 57.3751 27.15C57.3751 28.9622 58.8442 30.4313 60.6564 30.4313Z" fill="white"/>
</g>
<defs>
<clipPath id="clip0_15_423">
<rect width="70" height="70" fill="white" transform="translate(0.500122 0.900024)"/>
</clipPath>
</defs>
</svg>
