<svg width="60" height="59" viewBox="0 0 60 59" fill="none" xmlns="http://www.w3.org/2000/svg">
<g id="ClockCountdown" clip-path="url(#clip0_4_144)">
<path id="Vector" d="M52.125 31.3438C51.187 42.7012 41.5995 51.625 30 51.625C24.1321 51.625 18.5045 49.294 14.3553 45.1447C10.206 40.9955 7.875 35.3679 7.875 29.5C7.875 17.9005 16.7988 8.31301 28.1562 7.375" stroke="#E30000" stroke-width="3" stroke-linecap="round" stroke-linejoin="round"/>
<path id="Vector_2" d="M30 16.5938V29.5H42.9062" stroke="#E30000" stroke-width="2" stroke-linecap="round" stroke-linejoin="round"/>
<path id="Vector_3" d="M37.375 11.0625C38.9024 11.0625 40.1406 9.82429 40.1406 8.29688C40.1406 6.76946 38.9024 5.53125 37.375 5.53125C35.8476 5.53125 34.6094 6.76946 34.6094 8.29688C34.6094 9.82429 35.8476 11.0625 37.375 11.0625Z" fill="#E30000"/>
<path id="Vector_4" d="M45.6719 16.5938C47.1993 16.5938 48.4375 15.3555 48.4375 13.8281C48.4375 12.3007 47.1993 11.0625 45.6719 11.0625C44.1445 11.0625 42.9062 12.3007 42.9062 13.8281C42.9062 15.3555 44.1445 16.5938 45.6719 16.5938Z" fill="#E30000"/>
<path id="Vector_5" d="M51.2031 24.8906C52.7305 24.8906 53.9688 23.6524 53.9688 22.125C53.9688 20.5976 52.7305 19.3594 51.2031 19.3594C49.6757 19.3594 48.4375 20.5976 48.4375 22.125C48.4375 23.6524 49.6757 24.8906 51.2031 24.8906Z" fill="#E30000"/>
</g>
<defs>
<clipPath id="clip0_4_144">
<rect width="59" height="59" fill="white" transform="translate(0.5)"/>
</clipPath>
</defs>
</svg>
