<svg width="60" height="60" viewBox="0 0 60 60" fill="none" xmlns="http://www.w3.org/2000/svg">
<g id="measure-kilometer_svgrepo.com">
<path id="Vector" d="M15 37.5001H17.5V41.2501H42.5V37.5001H45V43.7501H15V37.5001ZM18.6354 17.198V27.2708H18.6821L19.4988 25.9231L21.809 22.5647H26.0792L21.9956 27.0881L26.6626 33.7355H22.299L19.5221 29.144L18.6354 30.2405V33.7355H15.1646V17.198H18.6354ZM27.7732 33.7355V26.1287L27.6799 22.5647H30.6901L30.8301 24.0885H30.9001C31.1394 23.6999 31.5422 23.317 32.1084 22.9396C32.6746 22.5622 33.451 22.3595 34.4376 22.3314C35.1949 22.3384 35.8441 22.5102 36.3851 22.8467C36.9261 23.1832 37.3222 23.6422 37.5734 24.2237H37.6201C38.0589 23.638 38.5446 23.1874 39.0774 22.872C39.6706 22.5229 40.3644 22.3427 41.1591 22.3314C42.2715 22.3237 43.1828 22.7107 43.8928 23.4922C44.6029 24.2737 44.9698 25.4955 44.9934 27.1577V33.7355H41.5399V27.6601C41.5413 26.8441 41.4097 26.215 41.1452 25.773C40.8808 25.331 40.475 25.1074 39.9279 25.1022C39.5246 25.1112 39.1898 25.2302 38.9235 25.459C38.6572 25.6878 38.4623 25.9724 38.3387 26.3126L38.2268 27.2033V33.7355H34.7732V27.4546C34.7757 26.747 34.6389 26.1808 34.3628 25.7559C34.0867 25.331 33.6564 25.1131 33.0718 25.1022C32.6056 25.1193 32.2322 25.2563 31.9516 25.5132C31.6711 25.7702 31.4773 26.0442 31.3705 26.3354C31.2627 26.6209 31.2148 26.9178 31.2268 27.2261V33.7355H27.7732Z" fill="#E30000"/>
</g>
</svg>
