<svg width="60" height="60" viewBox="0 0 60 60" fill="none" xmlns="http://www.w3.org/2000/svg">
<g id="steering-wheel-car_svgrepo.com" clip-path="url(#clip0_4_40)">
<path id="Vector" d="M33.3553 56.6447H26.6447L25.3289 36.3797H34.6711L33.3553 56.6447Z" fill="#C6C5CA"/>
<path id="Vector_2" d="M30 56.6447H33.3553L34.6711 36.3797H30V56.6447Z" fill="#8A8A91"/>
<path id="Vector_3" d="M23.6203 34.2763L3.35532 32.6974V27.3026L23.6203 25.3289V34.2763Z" fill="#C6C5CA"/>
<path id="Vector_4" d="M56.6447 32.6974L36.3797 34.2763V25.3289L56.6447 27.3026V32.6974Z" fill="#8A8A91"/>
<g id="Group">
<path id="Vector_5" d="M30 60C21.9867 60 14.453 56.8795 8.78672 51.2132C3.12047 45.547 0 38.0133 0 30C0 21.9867 3.12047 14.453 8.78672 8.78684C14.453 3.12047 21.9867 0 30 0C38.0133 0 45.5469 3.12047 51.2133 8.78684C56.8795 14.453 60 21.9867 60 30C60 38.0133 56.8795 45.5469 51.2133 51.2132C45.547 56.8795 38.0133 60 30 60ZM30 6.71051C17.1581 6.71051 6.71051 17.1581 6.71051 30C6.71051 42.8419 17.1581 53.2895 30 53.2895C42.8419 53.2895 53.2895 42.8419 53.2895 30C53.2895 17.1581 42.8419 6.71051 30 6.71051Z" fill="white"/>
<path id="Vector_6" d="M30 39.735C24.6321 39.735 20.265 35.3679 20.265 30C20.265 24.6321 24.6321 20.265 30 20.265C35.3679 20.265 39.735 24.6321 39.735 30C39.735 35.3679 35.3679 39.735 30 39.735Z" fill="#57565C"/>
</g>
<g id="Group_2">
<path id="Vector_7" d="M53.2895 30C53.2895 42.8419 42.8419 53.2895 30 53.2895V60C38.0133 60 45.5469 56.8795 51.2133 51.2132C56.8795 45.547 60 38.0133 60 30C60 21.9867 56.8795 14.453 51.2133 8.78684C45.547 3.12047 38.0133 0 30 0V6.71051C42.8419 6.71051 53.2895 17.1581 53.2895 30Z" fill="#E30000"/>
<path id="Vector_8" d="M39.735 30C39.735 24.6321 35.3679 20.265 30 20.265V39.735C35.3679 39.735 39.735 35.3679 39.735 30Z" fill="#E30000"/>
</g>
<path id="Vector_9" d="M30 33.2894C28.1862 33.2894 26.7105 31.8138 26.7105 30C26.7105 28.1862 28.1862 26.7105 30 26.7105C31.8138 26.7105 33.2894 28.1862 33.2894 30C33.2894 31.8138 31.8138 33.2894 30 33.2894Z" fill="#DE3205"/>
<path id="Vector_10" d="M33.2895 30C33.2895 28.1862 31.8138 26.7105 30 26.7105V33.2894C31.8138 33.2894 33.2895 31.8138 33.2895 30Z" fill="#690812"/>
</g>
<defs>
<clipPath id="clip0_4_40">
<rect width="60" height="60" fill="white"/>
</clipPath>
</defs>
</svg>
