<svg width="81" height="80" viewBox="0 0 81 80" fill="none" xmlns="http://www.w3.org/2000/svg">
<g id="steering-wheel-car_svgrepo.com" clip-path="url(#clip0_47_8)">
<path id="Vector" d="M44.9738 75.5263H36.0263L34.2719 48.5063H46.7281L44.9738 75.5263Z" fill="#C6C5CA"/>
<path id="Vector_2" d="M40.5 75.5263H44.9737L46.7281 48.5063H40.5V75.5263Z" fill="#8A8A91"/>
<path id="Vector_3" d="M31.9938 45.7018L4.97375 43.5967V36.4035L31.9938 33.772V45.7018Z" fill="#C6C5CA"/>
<path id="Vector_4" d="M76.0263 43.5967L49.0063 45.7018V33.772L76.0263 36.4035V43.5967Z" fill="#8A8A91"/>
<g id="Group">
<path id="Vector_5" d="M40.5 80C29.8156 80 19.7706 75.8394 12.2156 68.2842C4.66063 60.7294 0.5 50.6844 0.5 40C0.5 29.3156 4.66063 19.2706 12.2156 11.7158C19.7706 4.16063 29.8156 0 40.5 0C51.1844 0 61.2292 4.16063 68.7844 11.7158C76.3394 19.2706 80.5 29.3156 80.5 40C80.5 50.6844 76.3394 60.7292 68.7844 68.2842C61.2294 75.8394 51.1844 80 40.5 80ZM40.5 8.94734C23.3775 8.94734 9.44734 22.8775 9.44734 40C9.44734 57.1225 23.3775 71.0527 40.5 71.0527C57.6225 71.0527 71.5527 57.1225 71.5527 40C71.5527 22.8775 57.6225 8.94734 40.5 8.94734Z" fill="white"/>
<path id="Vector_6" d="M40.5 52.98C33.3428 52.98 27.52 47.1572 27.52 40C27.52 32.8428 33.3428 27.02 40.5 27.02C47.6572 27.02 53.48 32.8428 53.48 40C53.48 47.1572 47.6572 52.98 40.5 52.98Z" fill="#57565C"/>
</g>
<g id="Group_2">
<path id="Vector_7" d="M71.5527 40C71.5527 57.1225 57.6225 71.0527 40.5 71.0527V80C51.1844 80 61.2292 75.8394 68.7844 68.2842C76.3394 60.7294 80.5 50.6844 80.5 40C80.5 29.3156 76.3394 19.2706 68.7844 11.7158C61.2294 4.16063 51.1844 0 40.5 0V8.94734C57.6225 8.94734 71.5527 22.8775 71.5527 40Z" fill="#E30000"/>
<path id="Vector_8" d="M53.48 40C53.48 32.8428 47.6572 27.02 40.5 27.02V52.98C47.6572 52.98 53.48 47.1572 53.48 40Z" fill="#E30000"/>
</g>
<path id="Vector_9" d="M40.5 44.3861C38.0816 44.3861 36.1141 42.4186 36.1141 40.0002C36.1141 37.5818 38.0816 35.6143 40.5 35.6143C42.9185 35.6143 44.886 37.5818 44.886 40.0002C44.886 42.4186 42.9185 44.3861 40.5 44.3861Z" fill="#DE3205"/>
<path id="Vector_10" d="M44.8859 40.0002C44.8859 37.5818 42.9184 35.6143 40.5 35.6143V44.3861C42.9184 44.3861 44.8859 42.4186 44.8859 40.0002Z" fill="#690812"/>
</g>
<defs>
<clipPath id="clip0_47_8">
<rect width="80" height="80" fill="white" transform="translate(0.5)"/>
</clipPath>
</defs>
</svg>
